<svg xmlns="http://www.w3.org/2000/svg" viewBox="170 310 590 550" role="img" aria-labelledby="title"><title id="title">Blue mask / incised lattice: flat source layout</title><rect x="170" y="310" width="590" height="550" fill="#f6f4ed"/><line x1="294" y1="356" x2="300" y2="464" stroke="#2755b4" stroke-width="2.0357142857142856"/><line x1="650" y1="358" x2="646" y2="473" stroke="#2755b4" stroke-width="2.0357142857142856"/><line x1="300" y1="464" x2="377" y2="457" stroke="#2755b4" stroke-width="2.0357142857142856"/><line x1="377" y1="457" x2="467" y2="472" stroke="#2755b4" stroke-width="2.0357142857142856"/><line x1="467" y1="472" x2="558" y2="466" stroke="#2755b4" stroke-width="2.0357142857142856"/><line x1="558" y1="466" x2="646" y2="473" stroke="#2755b4" stroke-width="2.0357142857142856"/><line x1="300" y1="464" x2="212" y2="520" stroke="#2755b4" stroke-width="2.0357142857142856"/><line x1="646" y1="473" x2="723" y2="526" stroke="#2755b4" stroke-width="2.0357142857142856"/><line x1="212" y1="520" x2="258" y2="570" stroke="#2755b4" stroke-width="2.0357142857142856"/><line x1="212" y1="520" x2="236" y2="642" stroke="#2755b4" stroke-width="2.0357142857142856"/><line x1="723" y1="526" x2="684" y2="568" stroke="#2755b4" stroke-width="2.0357142857142856"/><line x1="723" y1="526" x2="698" y2="654" stroke="#2755b4" stroke-width="2.0357142857142856"/><line x1="300" y1="464" x2="258" y2="570" stroke="#2755b4" stroke-width="2.0357142857142856"/><line x1="300" y1="464" x2="390" y2="505" stroke="#938b7f" stroke-width="2.0357142857142856" stroke-dasharray="6.107142857142857 6.107142857142857"/><line x1="377" y1="457" x2="390" y2="505" stroke="#2755b4" stroke-width="2.0357142857142856"/><line x1="467" y1="472" x2="390" y2="505" stroke="#2755b4" stroke-width="2.0357142857142856"/><line x1="467" y1="472" x2="538" y2="512" stroke="#2755b4" stroke-width="2.0357142857142856"/><line x1="558" y1="466" x2="538" y2="512" stroke="#2755b4" stroke-width="2.0357142857142856"/><line x1="558" y1="466" x2="616" y2="540" stroke="#2755b4" stroke-width="2.0357142857142856"/><line x1="646" y1="473" x2="616" y2="540" stroke="#2755b4" stroke-width="2.0357142857142856"/><line x1="646" y1="473" x2="684" y2="568" stroke="#2755b4" stroke-width="2.0357142857142856"/><line x1="390" y1="505" x2="467" y2="535" stroke="#2755b4" stroke-width="2.0357142857142856"/><line x1="538" y1="512" x2="467" y2="535" stroke="#2755b4" stroke-width="2.0357142857142856"/><line x1="538" y1="512" x2="616" y2="540" stroke="#2755b4" stroke-width="2.0357142857142856"/><line x1="467" y1="535" x2="427" y2="589" stroke="#2755b4" stroke-width="2.0357142857142856"/><line x1="467" y1="535" x2="519" y2="591" stroke="#2755b4" stroke-width="2.0357142857142856"/><line x1="258" y1="570" x2="236" y2="642" stroke="#2755b4" stroke-width="2.0357142857142856"/><line x1="684" y1="568" x2="698" y2="654" stroke="#2755b4" stroke-width="2.0357142857142856"/><line x1="684" y1="568" x2="616" y2="540" stroke="#2755b4" stroke-width="2.0357142857142856"/><line x1="427" y1="589" x2="397" y2="645" stroke="#2755b4" stroke-width="2.0357142857142856"/><line x1="519" y1="591" x2="518" y2="655" stroke="#2755b4" stroke-width="2.0357142857142856"/><line x1="519" y1="591" x2="616" y2="540" stroke="#2755b4" stroke-width="2.0357142857142856"/><line x1="236" y1="642" x2="397" y2="645" stroke="#2755b4" stroke-width="2.0357142857142856"/><line x1="236" y1="642" x2="297" y2="689" stroke="#2755b4" stroke-width="2.0357142857142856"/><line x1="698" y1="654" x2="518" y2="655" stroke="#2755b4" stroke-width="2.0357142857142856"/><line x1="698" y1="654" x2="643" y2="702" stroke="#2755b4" stroke-width="2.0357142857142856"/><line x1="397" y1="645" x2="297" y2="689" stroke="#2755b4" stroke-width="2.0357142857142856"/><line x1="397" y1="645" x2="463" y2="738" stroke="#2755b4" stroke-width="2.0357142857142856"/><line x1="518" y1="655" x2="643" y2="702" stroke="#2755b4" stroke-width="2.0357142857142856"/><line x1="518" y1="655" x2="463" y2="738" stroke="#2755b4" stroke-width="2.0357142857142856"/><line x1="297" y1="689" x2="272" y2="768" stroke="#2755b4" stroke-width="2.0357142857142856"/><line x1="297" y1="689" x2="350" y2="796" stroke="#2755b4" stroke-width="2.0357142857142856"/><line x1="297" y1="689" x2="401" y2="790" stroke="#2755b4" stroke-width="2.0357142857142856"/><line x1="643" y1="702" x2="652" y2="788" stroke="#2755b4" stroke-width="2.0357142857142856"/><line x1="643" y1="702" x2="554" y2="807" stroke="#2755b4" stroke-width="2.0357142857142856"/><line x1="643" y1="702" x2="505" y2="763" stroke="#2755b4" stroke-width="2.0357142857142856"/><line x1="463" y1="738" x2="401" y2="790" stroke="#2755b4" stroke-width="2.0357142857142856"/><line x1="463" y1="738" x2="505" y2="763" stroke="#2755b4" stroke-width="2.0357142857142856"/><line x1="272" y1="768" x2="350" y2="796" stroke="#2755b4" stroke-width="2.0357142857142856"/><line x1="350" y1="796" x2="401" y2="790" stroke="#2755b4" stroke-width="2.0357142857142856"/><line x1="652" y1="788" x2="554" y2="807" stroke="#2755b4" stroke-width="2.0357142857142856"/><line x1="554" y1="807" x2="505" y2="763" stroke="#2755b4" stroke-width="2.0357142857142856"/><line x1="427" y1="589" x2="236" y2="642" stroke="#938b7f" stroke-width="2.0357142857142856" stroke-dasharray="6.107142857142857 6.107142857142857"/><circle cx="294" cy="356" r="6.0" fill="#f6f4ed" stroke="#2755b4" stroke-width="2.0357142857142856"><title>n01: Left upper stem</title></circle><circle cx="650" cy="358" r="6.0" fill="#f6f4ed" stroke="#2755b4" stroke-width="2.0357142857142856"><title>n02: Right upper stem</title></circle><circle cx="300" cy="464" r="6.0" fill="#f6f4ed" stroke="#2755b4" stroke-width="2.0357142857142856"><title>n03: Left outer brow</title></circle><circle cx="377" cy="457" r="6.0" fill="#f6f4ed" stroke="#2755b4" stroke-width="2.0357142857142856"><title>n04: Left inner brow</title></circle><circle cx="467" cy="472" r="6.0" fill="#f6f4ed" stroke="#2755b4" stroke-width="2.0357142857142856"><title>n05: Centre brow</title></circle><circle cx="558" cy="466" r="6.0" fill="#f6f4ed" stroke="#2755b4" stroke-width="2.0357142857142856"><title>n06: Right inner brow</title></circle><circle cx="646" cy="473" r="6.0" fill="#f6f4ed" stroke="#2755b4" stroke-width="2.0357142857142856"><title>n07: Right outer brow</title></circle><circle cx="212" cy="520" r="6.0" fill="#f6f4ed" stroke="#2755b4" stroke-width="2.0357142857142856"><title>n08: Left temple</title></circle><circle cx="723" cy="526" r="6.0" fill="#f6f4ed" stroke="#2755b4" stroke-width="2.0357142857142856"><title>n09: Right temple</title></circle><circle cx="390" cy="505" r="6.0" fill="#f6f4ed" stroke="#2755b4" stroke-width="2.0357142857142856"><title>n10: Left upper eye</title></circle><circle cx="538" cy="512" r="6.0" fill="#f6f4ed" stroke="#2755b4" stroke-width="2.0357142857142856"><title>n11: Right upper eye</title></circle><circle cx="467" cy="535" r="6.0" fill="#f6f4ed" stroke="#2755b4" stroke-width="2.0357142857142856"><title>n12: Bridge</title></circle><circle cx="258" cy="570" r="6.0" fill="#f6f4ed" stroke="#2755b4" stroke-width="2.0357142857142856"><title>n13: Left outer eye</title></circle><circle cx="684" cy="568" r="6.0" fill="#f6f4ed" stroke="#2755b4" stroke-width="2.0357142857142856"><title>n14: Right outer eye</title></circle><circle cx="427" cy="589" r="6.0" fill="#f6f4ed" stroke="#2755b4" stroke-width="2.0357142857142856"><title>n15: Left nose bridge</title></circle><circle cx="519" cy="591" r="6.0" fill="#f6f4ed" stroke="#2755b4" stroke-width="2.0357142857142856"><title>n16: Right nose bridge</title></circle><circle cx="236" cy="642" r="6.0" fill="#f6f4ed" stroke="#2755b4" stroke-width="2.0357142857142856"><title>n17: Left outer cheek</title></circle><circle cx="698" cy="654" r="6.0" fill="#f6f4ed" stroke="#2755b4" stroke-width="2.0357142857142856"><title>n18: Right outer cheek</title></circle><circle cx="397" cy="645" r="6.0" fill="#f6f4ed" stroke="#2755b4" stroke-width="2.0357142857142856"><title>n19: Left inner cheek</title></circle><circle cx="518" cy="655" r="6.0" fill="#f6f4ed" stroke="#2755b4" stroke-width="2.0357142857142856"><title>n20: Right inner cheek</title></circle><circle cx="297" cy="689" r="6.0" fill="#f6f4ed" stroke="#2755b4" stroke-width="2.0357142857142856"><title>n21: Left lower cheek</title></circle><circle cx="643" cy="702" r="6.0" fill="#f6f4ed" stroke="#2755b4" stroke-width="2.0357142857142856"><title>n22: Right lower cheek</title></circle><circle cx="463" cy="738" r="6.0" fill="#f6f4ed" stroke="#2755b4" stroke-width="2.0357142857142856"><title>n23: Nose base</title></circle><circle cx="272" cy="768" r="6.0" fill="#f6f4ed" stroke="#2755b4" stroke-width="2.0357142857142856"><title>n24: Left outer jaw</title></circle><circle cx="652" cy="788" r="6.0" fill="#f6f4ed" stroke="#2755b4" stroke-width="2.0357142857142856"><title>n25: Right outer jaw</title></circle><circle cx="350" cy="796" r="6.0" fill="#f6f4ed" stroke="#2755b4" stroke-width="2.0357142857142856"><title>n26: Left middle jaw</title></circle><circle cx="554" cy="807" r="6.0" fill="#f6f4ed" stroke="#2755b4" stroke-width="2.0357142857142856"><title>n27: Right middle jaw</title></circle><circle cx="401" cy="790" r="6.0" fill="#f6f4ed" stroke="#2755b4" stroke-width="2.0357142857142856"><title>n28: Left inner jaw</title></circle><circle cx="505" cy="763" r="6.0" fill="#f6f4ed" stroke="#2755b4" stroke-width="2.0357142857142856"><title>n29: Right inner jaw</title></circle><circle cx="616" cy="540" r="6.0" fill="#f6f4ed" stroke="#2755b4" stroke-width="2.0357142857142856"><title>n30: Right inner eye</title></circle></svg>