<svg xmlns="http://www.w3.org/2000/svg" viewBox="0 0 660 820" width="660" height="820" role="img" aria-labelledby="title desc"><title id="title">68 / Feature contours</title><desc id="desc">Original drawn face; not a canonical mean shape or inference output.</desc><rect width="660" height="820" fill="#f6f4ed"/><text x="30" y="41" font-family="Arial,sans-serif" font-size="26" fill="#202321" >68 / Feature contours</text><text x="30" y="70" font-family="Arial,sans-serif" font-size="13" fill="#62685f" >dlib / iBUG indexing · original schematic geometry</text><path d="M85.000,221.469L87.042,274.552" fill="none" stroke="#6a7168" stroke-width="1.8"/><path d="M87.042,274.552L95.208,327.635" fill="none" stroke="#6a7168" stroke-width="1.8"/><path d="M95.208,327.635L110.521,380.719" fill="none" stroke="#6a7168" stroke-width="1.8"/><path d="M110.521,380.719L136.042,431.760" fill="none" stroke="#6a7168" stroke-width="1.8"/><path d="M136.042,431.760L170.750,480.760" fill="none" stroke="#6a7168" stroke-width="1.8"/><path d="M170.750,480.760L215.667,522.615" fill="none" stroke="#6a7168" stroke-width="1.8"/><path d="M215.667,522.615L271.812,551.198" fill="none" stroke="#6a7168" stroke-width="1.8"/><path d="M271.812,551.198L330.000,562.427" fill="none" stroke="#6a7168" stroke-width="1.8"/><path d="M330.000,562.427L388.188,551.198" fill="none" stroke="#6a7168" stroke-width="1.8"/><path d="M388.188,551.198L444.333,522.615" fill="none" stroke="#6a7168" stroke-width="1.8"/><path d="M444.333,522.615L489.250,480.760" fill="none" stroke="#6a7168" stroke-width="1.8"/><path d="M489.250,480.760L523.958,431.760" fill="none" stroke="#6a7168" stroke-width="1.8"/><path d="M523.958,431.760L549.479,380.719" fill="none" stroke="#6a7168" stroke-width="1.8"/><path d="M549.479,380.719L564.792,327.635" fill="none" stroke="#6a7168" stroke-width="1.8"/><path d="M564.792,327.635L572.958,274.552" fill="none" stroke="#6a7168" stroke-width="1.8"/><path d="M572.958,274.552L575.000,221.469" fill="none" stroke="#6a7168" stroke-width="1.8"/><path d="M128.896,202.073L163.604,180.635" fill="none" stroke="#8a669c" stroke-width="1.8"/><path d="M163.604,180.635L205.458,177.573" fill="none" stroke="#8a669c" stroke-width="1.8"/><path d="M205.458,177.573L245.271,185.740" fill="none" stroke="#8a669c" stroke-width="1.8"/><path d="M245.271,185.740L278.958,204.115" fill="none" stroke="#8a669c" stroke-width="1.8"/><path d="M381.042,204.115L414.729,185.740" fill="none" stroke="#8a669c" stroke-width="1.8"/><path d="M414.729,185.740L454.542,177.573" fill="none" stroke="#8a669c" stroke-width="1.8"/><path d="M454.542,177.573L496.396,180.635" fill="none" stroke="#8a669c" stroke-width="1.8"/><path d="M496.396,180.635L531.104,202.073" fill="none" stroke="#8a669c" stroke-width="1.8"/><path d="M330.000,238.823L330.000,286.802" fill="none" stroke="#b37820" stroke-width="1.8"/><path d="M330.000,286.802L330.000,330.698" fill="none" stroke="#b37820" stroke-width="1.8"/><path d="M330.000,330.698L330.000,368.469" fill="none" stroke="#b37820" stroke-width="1.8"/><path d="M330.000,368.469L276.917,385.823" fill="none" stroke="#b37820" stroke-width="1.8"/><path d="M276.917,385.823L301.417,399.094" fill="none" stroke="#b37820" stroke-width="1.8"/><path d="M301.417,399.094L330.000,407.260" fill="none" stroke="#b37820" stroke-width="1.8"/><path d="M330.000,407.260L358.583,399.094" fill="none" stroke="#b37820" stroke-width="1.8"/><path d="M358.583,399.094L383.083,385.823" fill="none" stroke="#b37820" stroke-width="1.8"/><path d="M330.000,368.469L383.083,385.823" fill="none" stroke="#b37820" stroke-width="1.8"/><path d="M151.354,259.240L184.021,240.865" fill="none" stroke="#287f9a" stroke-width="1.8"/><path d="M184.021,240.865L223.833,241.885" fill="none" stroke="#287f9a" stroke-width="1.8"/><path d="M223.833,241.885L258.542,266.385" fill="none" stroke="#287f9a" stroke-width="1.8"/><path d="M258.542,266.385L221.792,276.594" fill="none" stroke="#287f9a" stroke-width="1.8"/><path d="M221.792,276.594L184.021,276.594" fill="none" stroke="#287f9a" stroke-width="1.8"/><path d="M184.021,276.594L151.354,259.240" fill="none" stroke="#287f9a" stroke-width="1.8"/><path d="M401.458,266.385L436.167,241.885" fill="none" stroke="#287f9a" stroke-width="1.8"/><path d="M436.167,241.885L475.979,240.865" fill="none" stroke="#287f9a" stroke-width="1.8"/><path d="M475.979,240.865L508.646,259.240" fill="none" stroke="#287f9a" stroke-width="1.8"/><path d="M508.646,259.240L475.979,276.594" fill="none" stroke="#287f9a" stroke-width="1.8"/><path d="M475.979,276.594L438.208,276.594" fill="none" stroke="#287f9a" stroke-width="1.8"/><path d="M438.208,276.594L401.458,266.385" fill="none" stroke="#287f9a" stroke-width="1.8"/><path d="M239.146,461.365L277.938,439.927" fill="none" stroke="#b25260" stroke-width="1.8"/><path d="M277.938,439.927L309.583,432.781" fill="none" stroke="#b25260" stroke-width="1.8"/><path d="M309.583,432.781L330.000,438.906" fill="none" stroke="#b25260" stroke-width="1.8"/><path d="M330.000,438.906L350.417,432.781" fill="none" stroke="#b25260" stroke-width="1.8"/><path d="M350.417,432.781L382.062,439.927" fill="none" stroke="#b25260" stroke-width="1.8"/><path d="M382.062,439.927L420.854,461.365" fill="none" stroke="#b25260" stroke-width="1.8"/><path d="M420.854,461.365L385.125,484.844" fill="none" stroke="#b25260" stroke-width="1.8"/><path d="M385.125,484.844L353.479,498.115" fill="none" stroke="#b25260" stroke-width="1.8"/><path d="M353.479,498.115L330.000,500.156" fill="none" stroke="#b25260" stroke-width="1.8"/><path d="M330.000,500.156L306.521,498.115" fill="none" stroke="#b25260" stroke-width="1.8"/><path d="M306.521,498.115L274.875,484.844" fill="none" stroke="#b25260" stroke-width="1.8"/><path d="M274.875,484.844L239.146,461.365" fill="none" stroke="#b25260" stroke-width="1.8"/><path d="M260.583,461.365L303.458,453.198" fill="none" stroke="#b25260" stroke-width="1.8"/><path d="M303.458,453.198L330.000,456.260" fill="none" stroke="#b25260" stroke-width="1.8"/><path d="M330.000,456.260L356.542,453.198" fill="none" stroke="#b25260" stroke-width="1.8"/><path d="M356.542,453.198L399.417,461.365" fill="none" stroke="#b25260" stroke-width="1.8"/><path d="M399.417,461.365L356.542,473.615" fill="none" stroke="#b25260" stroke-width="1.8"/><path d="M356.542,473.615L330.000,477.698" fill="none" stroke="#b25260" stroke-width="1.8"/><path d="M330.000,477.698L303.458,473.615" fill="none" stroke="#b25260" stroke-width="1.8"/><path d="M303.458,473.615L260.583,461.365" fill="none" stroke="#b25260" stroke-width="1.8"/><circle data-node="0" cx="85.000" cy="221.469" r="3.8" fill="#6a7168" stroke="#f6f4ed" stroke-width="1"><title>0 / contour</title></circle><circle data-node="1" cx="87.042" cy="274.552" r="3.8" fill="#6a7168" stroke="#f6f4ed" stroke-width="1"><title>1 / contour</title></circle><circle data-node="2" cx="95.208" cy="327.635" r="3.8" fill="#6a7168" stroke="#f6f4ed" stroke-width="1"><title>2 / contour</title></circle><circle data-node="3" cx="110.521" cy="380.719" r="3.8" fill="#6a7168" stroke="#f6f4ed" stroke-width="1"><title>3 / contour</title></circle><circle data-node="4" cx="136.042" cy="431.760" r="3.8" fill="#6a7168" stroke="#f6f4ed" stroke-width="1"><title>4 / contour</title></circle><circle data-node="5" cx="170.750" cy="480.760" r="3.8" fill="#6a7168" stroke="#f6f4ed" stroke-width="1"><title>5 / contour</title></circle><circle data-node="6" cx="215.667" cy="522.615" r="3.8" fill="#6a7168" stroke="#f6f4ed" stroke-width="1"><title>6 / contour</title></circle><circle data-node="7" cx="271.812" cy="551.198" r="3.8" fill="#6a7168" stroke="#f6f4ed" stroke-width="1"><title>7 / contour</title></circle><circle data-node="8" cx="330.000" cy="562.427" r="3.8" fill="#6a7168" stroke="#f6f4ed" stroke-width="1"><title>8 / contour</title></circle><circle data-node="9" cx="388.188" cy="551.198" r="3.8" fill="#6a7168" stroke="#f6f4ed" stroke-width="1"><title>9 / contour</title></circle><circle data-node="10" cx="444.333" cy="522.615" r="3.8" fill="#6a7168" stroke="#f6f4ed" stroke-width="1"><title>10 / contour</title></circle><circle data-node="11" cx="489.250" cy="480.760" r="3.8" fill="#6a7168" stroke="#f6f4ed" stroke-width="1"><title>11 / contour</title></circle><circle data-node="12" cx="523.958" cy="431.760" r="3.8" fill="#6a7168" stroke="#f6f4ed" stroke-width="1"><title>12 / contour</title></circle><circle data-node="13" cx="549.479" cy="380.719" r="3.8" fill="#6a7168" stroke="#f6f4ed" stroke-width="1"><title>13 / contour</title></circle><circle data-node="14" cx="564.792" cy="327.635" r="3.8" fill="#6a7168" stroke="#f6f4ed" stroke-width="1"><title>14 / contour</title></circle><circle data-node="15" cx="572.958" cy="274.552" r="3.8" fill="#6a7168" stroke="#f6f4ed" stroke-width="1"><title>15 / contour</title></circle><circle data-node="16" cx="575.000" cy="221.469" r="3.8" fill="#6a7168" stroke="#f6f4ed" stroke-width="1"><title>16 / contour</title></circle><circle data-node="17" cx="128.896" cy="202.073" r="3.8" fill="#8a669c" stroke="#f6f4ed" stroke-width="1"><title>17 / brows</title></circle><circle data-node="18" cx="163.604" cy="180.635" r="3.8" fill="#8a669c" stroke="#f6f4ed" stroke-width="1"><title>18 / brows</title></circle><circle data-node="19" cx="205.458" cy="177.573" r="3.8" fill="#8a669c" stroke="#f6f4ed" stroke-width="1"><title>19 / brows</title></circle><circle data-node="20" cx="245.271" cy="185.740" r="3.8" fill="#8a669c" stroke="#f6f4ed" stroke-width="1"><title>20 / brows</title></circle><circle data-node="21" cx="278.958" cy="204.115" r="3.8" fill="#8a669c" stroke="#f6f4ed" stroke-width="1"><title>21 / brows</title></circle><circle data-node="22" cx="381.042" cy="204.115" r="3.8" fill="#8a669c" stroke="#f6f4ed" stroke-width="1"><title>22 / brows</title></circle><circle data-node="23" cx="414.729" cy="185.740" r="3.8" fill="#8a669c" stroke="#f6f4ed" stroke-width="1"><title>23 / brows</title></circle><circle data-node="24" cx="454.542" cy="177.573" r="3.8" fill="#8a669c" stroke="#f6f4ed" stroke-width="1"><title>24 / brows</title></circle><circle data-node="25" cx="496.396" cy="180.635" r="3.8" fill="#8a669c" stroke="#f6f4ed" stroke-width="1"><title>25 / brows</title></circle><circle data-node="26" cx="531.104" cy="202.073" r="3.8" fill="#8a669c" stroke="#f6f4ed" stroke-width="1"><title>26 / brows</title></circle><circle data-node="27" cx="330.000" cy="238.823" r="3.8" fill="#b37820" stroke="#f6f4ed" stroke-width="1"><title>27 / nose</title></circle><circle data-node="28" cx="330.000" cy="286.802" r="3.8" fill="#b37820" stroke="#f6f4ed" stroke-width="1"><title>28 / nose</title></circle><circle data-node="29" cx="330.000" cy="330.698" r="3.8" fill="#b37820" stroke="#f6f4ed" stroke-width="1"><title>29 / nose</title></circle><circle data-node="30" cx="330.000" cy="368.469" r="3.8" fill="#b37820" stroke="#f6f4ed" stroke-width="1"><title>30 / nose</title></circle><circle data-node="31" cx="276.917" cy="385.823" r="3.8" fill="#b37820" stroke="#f6f4ed" stroke-width="1"><title>31 / nose</title></circle><circle data-node="32" cx="301.417" cy="399.094" r="3.8" fill="#b37820" stroke="#f6f4ed" stroke-width="1"><title>32 / nose</title></circle><circle data-node="33" cx="330.000" cy="407.260" r="3.8" fill="#b37820" stroke="#f6f4ed" stroke-width="1"><title>33 / nose</title></circle><circle data-node="34" cx="358.583" cy="399.094" r="3.8" fill="#b37820" stroke="#f6f4ed" stroke-width="1"><title>34 / nose</title></circle><circle data-node="35" cx="383.083" cy="385.823" r="3.8" fill="#b37820" stroke="#f6f4ed" stroke-width="1"><title>35 / nose</title></circle><circle data-node="36" cx="151.354" cy="259.240" r="3.8" fill="#287f9a" stroke="#f6f4ed" stroke-width="1"><title>36 / eyes</title></circle><circle data-node="37" cx="184.021" cy="240.865" r="3.8" fill="#287f9a" stroke="#f6f4ed" stroke-width="1"><title>37 / eyes</title></circle><circle data-node="38" cx="223.833" cy="241.885" r="3.8" fill="#287f9a" stroke="#f6f4ed" stroke-width="1"><title>38 / eyes</title></circle><circle data-node="39" cx="258.542" cy="266.385" r="3.8" fill="#287f9a" stroke="#f6f4ed" stroke-width="1"><title>39 / eyes</title></circle><circle data-node="40" cx="221.792" cy="276.594" r="3.8" fill="#287f9a" stroke="#f6f4ed" stroke-width="1"><title>40 / eyes</title></circle><circle data-node="41" cx="184.021" cy="276.594" r="3.8" fill="#287f9a" stroke="#f6f4ed" stroke-width="1"><title>41 / eyes</title></circle><circle data-node="42" cx="401.458" cy="266.385" r="3.8" fill="#287f9a" stroke="#f6f4ed" stroke-width="1"><title>42 / eyes</title></circle><circle data-node="43" cx="436.167" cy="241.885" r="3.8" fill="#287f9a" stroke="#f6f4ed" stroke-width="1"><title>43 / eyes</title></circle><circle data-node="44" cx="475.979" cy="240.865" r="3.8" fill="#287f9a" stroke="#f6f4ed" stroke-width="1"><title>44 / eyes</title></circle><circle data-node="45" cx="508.646" cy="259.240" r="3.8" fill="#287f9a" stroke="#f6f4ed" stroke-width="1"><title>45 / eyes</title></circle><circle data-node="46" cx="475.979" cy="276.594" r="3.8" fill="#287f9a" stroke="#f6f4ed" stroke-width="1"><title>46 / eyes</title></circle><circle data-node="47" cx="438.208" cy="276.594" r="3.8" fill="#287f9a" stroke="#f6f4ed" stroke-width="1"><title>47 / eyes</title></circle><circle data-node="48" cx="239.146" cy="461.365" r="3.8" fill="#b25260" stroke="#f6f4ed" stroke-width="1"><title>48 / mouth</title></circle><circle data-node="49" cx="277.938" cy="439.927" r="3.8" fill="#b25260" stroke="#f6f4ed" stroke-width="1"><title>49 / mouth</title></circle><circle data-node="50" cx="309.583" cy="432.781" r="3.8" fill="#b25260" stroke="#f6f4ed" stroke-width="1"><title>50 / mouth</title></circle><circle data-node="51" cx="330.000" cy="438.906" r="3.8" fill="#b25260" stroke="#f6f4ed" stroke-width="1"><title>51 / mouth</title></circle><circle data-node="52" cx="350.417" cy="432.781" r="3.8" fill="#b25260" stroke="#f6f4ed" stroke-width="1"><title>52 / mouth</title></circle><circle data-node="53" cx="382.062" cy="439.927" r="3.8" fill="#b25260" stroke="#f6f4ed" stroke-width="1"><title>53 / mouth</title></circle><circle data-node="54" cx="420.854" cy="461.365" r="3.8" fill="#b25260" stroke="#f6f4ed" stroke-width="1"><title>54 / mouth</title></circle><circle data-node="55" cx="385.125" cy="484.844" r="3.8" fill="#b25260" stroke="#f6f4ed" stroke-width="1"><title>55 / mouth</title></circle><circle data-node="56" cx="353.479" cy="498.115" r="3.8" fill="#b25260" stroke="#f6f4ed" stroke-width="1"><title>56 / mouth</title></circle><circle data-node="57" cx="330.000" cy="500.156" r="3.8" fill="#b25260" stroke="#f6f4ed" stroke-width="1"><title>57 / mouth</title></circle><circle data-node="58" cx="306.521" cy="498.115" r="3.8" fill="#b25260" stroke="#f6f4ed" stroke-width="1"><title>58 / mouth</title></circle><circle data-node="59" cx="274.875" cy="484.844" r="3.8" fill="#b25260" stroke="#f6f4ed" stroke-width="1"><title>59 / mouth</title></circle><circle data-node="60" cx="260.583" cy="461.365" r="3.8" fill="#b25260" stroke="#f6f4ed" stroke-width="1"><title>60 / mouth</title></circle><circle data-node="61" cx="303.458" cy="453.198" r="3.8" fill="#b25260" stroke="#f6f4ed" stroke-width="1"><title>61 / mouth</title></circle><circle data-node="62" cx="330.000" cy="456.260" r="3.8" fill="#b25260" stroke="#f6f4ed" stroke-width="1"><title>62 / mouth</title></circle><circle data-node="63" cx="356.542" cy="453.198" r="3.8" fill="#b25260" stroke="#f6f4ed" stroke-width="1"><title>63 / mouth</title></circle><circle data-node="64" cx="399.417" cy="461.365" r="3.8" fill="#b25260" stroke="#f6f4ed" stroke-width="1"><title>64 / mouth</title></circle><circle data-node="65" cx="356.542" cy="473.615" r="3.8" fill="#b25260" stroke="#f6f4ed" stroke-width="1"><title>65 / mouth</title></circle><circle data-node="66" cx="330.000" cy="477.698" r="3.8" fill="#b25260" stroke="#f6f4ed" stroke-width="1"><title>66 / mouth</title></circle><circle data-node="67" cx="303.458" cy="473.615" r="3.8" fill="#b25260" stroke="#f6f4ed" stroke-width="1"><title>67 / mouth</title></circle><circle cx="34" cy="697" r="4" fill="#6a7168"/><text x="45" y="702" font-family="Arial,sans-serif" font-size="12" fill="#62685f" >Contour</text><circle cx="156" cy="697" r="4" fill="#8a669c"/><text x="167" y="702" font-family="Arial,sans-serif" font-size="12" fill="#62685f" >Brows</text><circle cx="278" cy="697" r="4" fill="#287f9a"/><text x="289" y="702" font-family="Arial,sans-serif" font-size="12" fill="#62685f" >Eyes</text><circle cx="400" cy="697" r="4" fill="#b37820"/><text x="411" y="702" font-family="Arial,sans-serif" font-size="12" fill="#62685f" >Nose</text><circle cx="522" cy="697" r="4" fill="#b25260"/><text x="533" y="702" font-family="Arial,sans-serif" font-size="12" fill="#62685f" >Mouth</text><text x="30" y="742" font-family="Arial,sans-serif" font-size="13" fill="#202321" >17 jaw / 10 brow / 12 eye / 9 nose / 20 lip points.</text><text x="30" y="768" font-family="Arial,sans-serif" font-size="11" fill="#62685f" >Official index groups and drawing connections; positions are illustrative.</text><text x="30" y="793" font-family="Arial,sans-serif" font-size="10" fill="#62685f" >SOURCE: dlib / see linked reference and JSON provenance</text></svg>