<svg xmlns="http://www.w3.org/2000/svg" viewBox="300 270 300 305" role="img" aria-labelledby="title"><title id="title">Red portrait / radial graph: symmetrical design</title><rect x="300" y="270" width="300" height="305" fill="#f6f4ed"/><path d="M 445,280 v 285" stroke="#bab7b0" stroke-dasharray="3 7"/><line x1="403.5" y1="304.0" x2="401" y2="335" stroke="#202321" stroke-width="1.0"/><line x1="403.5" y1="304.0" x2="445" y2="342" stroke="#202321" stroke-width="1.0"/><line x1="486.5" y1="304.0" x2="445" y2="342" stroke="#938b7f" stroke-width="1.0" stroke-dasharray="3.0 3.0"/><line x1="336.0" y1="335.5" x2="401" y2="335" stroke="#202321" stroke-width="1.0"/><line x1="401" y1="335" x2="417" y2="341" stroke="#202321" stroke-width="1.0"/><line x1="417" y1="341" x2="445" y2="342" stroke="#202321" stroke-width="1.0"/><line x1="445" y1="342" x2="554.0" y2="335.5" stroke="#938b7f" stroke-width="1.0" stroke-dasharray="3.0 3.0"/><line x1="445" y1="342" x2="445" y2="374" stroke="#202321" stroke-width="1.0"/><line x1="401" y1="335" x2="445" y2="374" stroke="#202321" stroke-width="1.0"/><line x1="445" y1="374" x2="486.5" y2="304.0" stroke="#938b7f" stroke-width="1.0" stroke-dasharray="3.0 3.0"/><line x1="445" y1="374" x2="445" y2="386" stroke="#202321" stroke-width="1.0"/><line x1="325.0" y1="386.0" x2="445" y2="386" stroke="#202321" stroke-width="1.0"/><line x1="445" y1="386" x2="565.0" y2="386.0" stroke="#202321" stroke-width="1.0"/><line x1="334.0" y1="425.5" x2="556.0" y2="425.5" stroke="#938b7f" stroke-width="1.0" stroke-dasharray="3.0 3.0"/><line x1="401" y1="335" x2="445" y2="463" stroke="#938b7f" stroke-width="1.0" stroke-dasharray="3.0 3.0"/><line x1="417" y1="341" x2="445" y2="463" stroke="#938b7f" stroke-width="1.0" stroke-dasharray="3.0 3.0"/><line x1="486.5" y1="304.0" x2="445" y2="463" stroke="#938b7f" stroke-width="1.0" stroke-dasharray="3.0 3.0"/><line x1="445" y1="386" x2="445" y2="463" stroke="#938b7f" stroke-width="1.0" stroke-dasharray="3.0 3.0"/><line x1="445" y1="463" x2="445" y2="536" stroke="#202321" stroke-width="1.0"/><line x1="486.5" y1="304.0" x2="489" y2="335" stroke="#db6331" stroke-width="1.0" stroke-dasharray="3.0 3.0"/><line x1="554.0" y1="335.5" x2="489" y2="335" stroke="#db6331" stroke-width="1.0" stroke-dasharray="3.0 3.0"/><line x1="489" y1="335" x2="473" y2="341" stroke="#db6331" stroke-width="1.0" stroke-dasharray="3.0 3.0"/><line x1="473" y1="341" x2="445" y2="342" stroke="#db6331" stroke-width="1.0" stroke-dasharray="3.0 3.0"/><line x1="445" y1="342" x2="336.0" y2="335.5" stroke="#db6331" stroke-width="1.0" stroke-dasharray="3.0 3.0"/><line x1="489" y1="335" x2="445" y2="374" stroke="#db6331" stroke-width="1.0" stroke-dasharray="3.0 3.0"/><line x1="445" y1="374" x2="403.5" y2="304.0" stroke="#db6331" stroke-width="1.0" stroke-dasharray="3.0 3.0"/><line x1="489" y1="335" x2="445" y2="463" stroke="#db6331" stroke-width="1.0" stroke-dasharray="3.0 3.0"/><line x1="473" y1="341" x2="445" y2="463" stroke="#db6331" stroke-width="1.0" stroke-dasharray="3.0 3.0"/><line x1="403.5" y1="304.0" x2="445" y2="463" stroke="#db6331" stroke-width="1.0" stroke-dasharray="3.0 3.0"/><circle cx="403.5" cy="304.0" r="2.9473684210526314" fill="#f6f4ed" stroke="#202321" stroke-width="1.0"><title>n01: Left upper stem</title></circle><text x="408.2157894736842" y="299.87368421052633" font-family="monospace" font-size="7.368421052631579" fill="#202321">01</text><circle cx="486.5" cy="304.0" r="2.9473684210526314" fill="#f6f4ed" stroke="#202321" stroke-width="1.0"><title>n02: Right upper stem</title></circle><text x="491.2157894736842" y="299.87368421052633" font-family="monospace" font-size="7.368421052631579" fill="#202321">02</text><circle cx="336.0" cy="335.5" r="2.9473684210526314" fill="#f6f4ed" stroke="#202321" stroke-width="1.0"><title>n03: Left outer brow</title></circle><text x="340.7157894736842" y="331.37368421052633" font-family="monospace" font-size="7.368421052631579" fill="#202321">03</text><circle cx="554.0" cy="335.5" r="2.9473684210526314" fill="#f6f4ed" stroke="#202321" stroke-width="1.0"><title>n07: Right outer brow</title></circle><text x="558.7157894736843" y="331.37368421052633" font-family="monospace" font-size="7.368421052631579" fill="#202321">07</text><circle cx="325.0" cy="386.0" r="2.9473684210526314" fill="#f6f4ed" stroke="#202321" stroke-width="1.0"><title>n10: Left middle extension</title></circle><text x="329.7157894736842" y="381.87368421052633" font-family="monospace" font-size="7.368421052631579" fill="#202321">10</text><circle cx="565.0" cy="386.0" r="2.9473684210526314" fill="#f6f4ed" stroke="#202321" stroke-width="1.0"><title>n11: Right middle extension</title></circle><text x="569.7157894736843" y="381.87368421052633" font-family="monospace" font-size="7.368421052631579" fill="#202321">11</text><circle cx="334.0" cy="425.5" r="2.9473684210526314" fill="#f6f4ed" stroke="#202321" stroke-width="1.0"><title>n12: Left lower extension</title></circle><text x="338.7157894736842" y="421.37368421052633" font-family="monospace" font-size="7.368421052631579" fill="#202321">12</text><circle cx="556.0" cy="425.5" r="2.9473684210526314" fill="#f6f4ed" stroke="#202321" stroke-width="1.0"><title>n13: Right lower extension</title></circle><text x="560.7157894736843" y="421.37368421052633" font-family="monospace" font-size="7.368421052631579" fill="#202321">13</text><circle cx="445" cy="342" r="2.9473684210526314" fill="#f6f4ed" stroke="#202321" stroke-width="1.0"><title>n06: Centre brow</title></circle><text x="449.7157894736842" y="337.87368421052633" font-family="monospace" font-size="7.368421052631579" fill="#202321">06</text><circle cx="445" cy="374" r="2.9473684210526314" fill="#f6f4ed" stroke="#202321" stroke-width="1.0"><title>n08: Upper bridge</title></circle><text x="449.7157894736842" y="369.87368421052633" font-family="monospace" font-size="7.368421052631579" fill="#202321">08</text><circle cx="445" cy="386" r="2.9473684210526314" fill="#f6f4ed" stroke="#202321" stroke-width="1.0"><title>n09: Lower bridge</title></circle><text x="449.7157894736842" y="381.87368421052633" font-family="monospace" font-size="7.368421052631579" fill="#202321">09</text><circle cx="445" cy="463" r="2.9473684210526314" fill="#f6f4ed" stroke="#202321" stroke-width="1.0"><title>n14: Chin convergence</title></circle><text x="449.7157894736842" y="458.87368421052633" font-family="monospace" font-size="7.368421052631579" fill="#202321">14</text><circle cx="445" cy="536" r="2.9473684210526314" fill="#f6f4ed" stroke="#202321" stroke-width="1.0"><title>n15: Lower axis</title></circle><text x="449.7157894736842" y="531.8736842105263" font-family="monospace" font-size="7.368421052631579" fill="#202321">15</text><circle cx="401" cy="335" r="2.9473684210526314" fill="#f6f4ed" stroke="#202321" stroke-width="1.0"><title>n04: Left brow</title></circle><text x="405.7157894736842" y="330.87368421052633" font-family="monospace" font-size="7.368421052631579" fill="#202321">04</text><circle cx="489" cy="335" r="2.9473684210526314" fill="#f6f4ed" stroke="#db6331" stroke-width="1.0"><title>n04m: Added mirror of n04</title></circle><text x="493.7157894736842" y="330.87368421052633" font-family="monospace" font-size="7.368421052631579" fill="#db6331">04m</text><circle cx="417" cy="341" r="2.9473684210526314" fill="#f6f4ed" stroke="#202321" stroke-width="1.0"><title>n05: Left inner brow</title></circle><text x="421.7157894736842" y="336.87368421052633" font-family="monospace" font-size="7.368421052631579" fill="#202321">05</text><circle cx="473" cy="341" r="2.9473684210526314" fill="#f6f4ed" stroke="#db6331" stroke-width="1.0"><title>n05m: Added mirror of n05</title></circle><text x="477.7157894736842" y="336.87368421052633" font-family="monospace" font-size="7.368421052631579" fill="#db6331">05m</text></svg>